<?xml version="1.0" encoding="utf-8"?>
<!-- Generator: Adobe Illustrator 16.0.0, SVG Export Plug-In . SVG Version: 6.00 Build 0)  -->
<!DOCTYPE svg PUBLIC "-//W3C//DTD SVG 1.1//EN" "http://www.w3.org/Graphics/SVG/1.1/DTD/svg11.dtd">
<svg version="1.1" id="Layer_1" xmlns="http://www.w3.org/2000/svg" xmlns:xlink="http://www.w3.org/1999/xlink" x="0px" y="0px"
	 width="90px" height="90px" viewBox="45 45 90 90" enable-background="new 45 45 90 90" xml:space="preserve">
<g id="Layer_1_1_">
</g>
<g id="Layer_2">
	<polygon fill="none" points="65.166,81.688 58.488,81.688 51.969,81.688 43.144,92.007 58.488,107.048 73.913,92.007 	"/>
	<path fill="#F1A9A0" d="M90.125,49.366c-24.37,0-44.127,19.756-44.127,44.127c0,12.784,16.686,29.009,25.373,37.067
		c-0.39-1.261,6.14-7.081,18.514-18.534L63.206,85.853l15.577-17.953h22.963l15.219,17.953l-27.08,26.175
		c12.5,11.567,19.287,17.327,18.521,18.607c8.709-8.061,25.846-24.337,25.846-37.142C134.252,69.122,114.496,49.366,90.125,49.366z"
		/>
	<path fill="#FFFFFF" d="M75.705,115.012c-0.024,0.022-0.048,0.046-0.072,0.069C75.668,115.057,75.691,115.034,75.705,115.012z"/>
	<path fill="#FFFFFF" d="M41.364,115.102c-0.041-0.037-0.078-0.075-0.117-0.112C41.259,115.026,41.298,115.063,41.364,115.102z"/>
</g>
</svg>
